<svg xmlns="http://www.w3.org/2000/svg" viewBox="0 0 114.72 143.2"><defs><style>.cls-1{fill:#6777ef;}.cls-2{fill:#48464c;}</style></defs><g id="Layer_2" data-name="Layer 2"><g id="OBJECTS"><path class="cls-1" d="M63.24,0h0L10.12,53.11a34.58,34.58,0,0,0,0,48.88h0l1,1a16.74,16.74,0,0,0,23.68,0L58,79.74l-1-.95a16.73,16.73,0,0,0-23.67,0L63.24,48.88A34.58,34.58,0,0,0,63.24,0Z"/><path class="cls-2" d="M104.6,41.2h0l-.95-1a16.75,16.75,0,0,0-23.67,0L56.14,64.1l1,1a16.75,16.75,0,0,0,23.67,0L51.49,94.32a34.56,34.56,0,0,0,0,48.88h0L104.6,90.09A34.57,34.57,0,0,0,104.6,41.2Z"/></g></g></svg>